<?xml version="1.0" encoding="UTF-8" standalone="no"?>
<!-- Created with Inkscape (http://www.inkscape.org/) -->

<svg
   version="1.1"
   id="svg1"
   width="769.57843"
   height="214.21223"
   viewBox="0 0 769.57843 214.21223"
   sodipodi:docname="brush stroke.jpg"
   xmlns:inkscape="http://www.inkscape.org/namespaces/inkscape"
   xmlns:sodipodi="http://sodipodi.sourceforge.net/DTD/sodipodi-0.dtd"
   xmlns="http://www.w3.org/2000/svg"
   xmlns:svg="http://www.w3.org/2000/svg">
  <defs
     id="defs1" />
  <sodipodi:namedview
     id="namedview1"
     pagecolor="#ffffff"
     bordercolor="#000000"
     borderopacity="0.25"
     inkscape:showpageshadow="2"
     inkscape:pageopacity="0.0"
     inkscape:pagecheckerboard="0"
     inkscape:deskcolor="#d1d1d1"
     showgrid="false"
     inkscape:zoom="0.60810812"
     inkscape:cx="302.57777"
     inkscape:cy="504.02221"
     inkscape:window-width="1512"
     inkscape:window-height="916"
     inkscape:window-x="0"
     inkscape:window-y="38"
     inkscape:window-maximized="1"
     inkscape:current-layer="g1">
    <inkscape:page
       x="0"
       y="0"
       width="769.57843"
       height="214.21223"
       id="page2"
       margin="0"
       bleed="0" />
  </sodipodi:namedview>
  <g
     inkscape:groupmode="layer"
     inkscape:label="Image"
     id="g1"
     transform="translate(-16.065954,-142.37026)">
    <path
       style="fill:#C7D1D3"
       d="m 218.76912,354.71998 c -1.15059,-1.32487 -2.44815,-4.30291 -2.88347,-6.61788 -0.71189,-3.78572 -0.34127,-4.42267 3.68515,-6.33333 2.46216,-1.16837 5.42383,-2.12431 6.58149,-2.12431 3.37421,0 13.09237,-4.2669 15.73348,-6.908 1.33393,-1.33393 4.07533,-2.43452 6.092,-2.44575 2.01666,-0.0112 4.53188,-0.56785 5.58936,-1.23693 1.19748,-0.75765 -7.85497,-1.2231 -24,-1.23401 -35.66241,-0.0241 -48.84488,1.98592 -83.25603,12.69444 -12.6995,3.95199 -16.04838,4.5247 -26.34442,4.50528 -8.78637,-0.0166 -10.77135,0.40741 -13.17892,2.81498 -2.52578,2.52578 -3.86784,2.75421 -12.322238,2.09734 -11.758185,-0.91357 -14.769915,-1.93915 -12.77022,-4.34863 1.150615,-1.38641 0.155891,-1.94427 -4.789097,-2.68581 -7.254115,-1.08783 -36.299462,0.25433 -46.22036,2.13579 -3.743493,0.70994 -7.069319,1.02783 -7.390724,0.70642 -1.565259,-1.56526 1.683673,-3.27005 7.847568,-4.1178 6.541708,-0.89972 7.200771,-1.43133 8.236761,-6.64399 0.145746,-0.73333 -1.835007,-1.67063 -4.401674,-2.08288 l -4.666666,-0.74955 5.333333,-1.45007 c 2.933333,-0.79755 6.833333,-1.78797 8.666667,-2.20094 1.833333,-0.41298 4.138635,-2.05356 5.122893,-3.64574 2.522013,-4.07971 -0.05746,-5.51501 -8.336659,-4.63875 -5.183854,0.54864 -6.910201,0.21489 -8.290929,-1.6029 -2.761414,-3.63553 -2.313364,-3.97878 6.504695,-4.9833 9.882167,-1.12573 10.95895,-1.61881 8.914578,-4.08213 -1.207533,-1.45499 -1.075073,-2.04709 0.601923,-2.69061 3.807961,-1.46125 2.293134,-4.22105 -2.849835,-5.192 -2.75,-0.51917 -8.270128,-0.89377 -12.266952,-0.83245 -3.996823,0.0613 -7.596823,-0.36081 -8,-0.93806 -0.403176,-0.57726 -3.062163,-2.13399 -5.908861,-3.45941 -6.419521,-2.98891 -5.030696,-4.08406 7.807738,-6.15675 13.177659,-2.12745 19.563026,-3.90033 18.755246,-5.20735 -0.381312,-0.61697 2.525584,-2.42822 6.459768,-4.02498 5.8473,-2.37325 7.153061,-3.48574 7.153061,-6.09429 0,-3.02861 -0.480297,-3.21085 -9.433978,-3.57946 l -9.433978,-0.38838 8.229058,-5.15062 c 4.525981,-2.83284 8.919738,-5.98284 9.763904,-7 0.844165,-1.01716 2.713169,-1.84938 4.153341,-1.84938 5.09317,0 23.088463,-5.84086 25.467803,-8.26626 1.32705,-1.35275 2.97705,-2.11082 3.666667,-1.68461 0.689617,0.4262 2.003849,0.28951 2.920515,-0.30377 0.916667,-0.59328 4.318038,-1.67869 7.558602,-2.41203 9.10356,-2.06011 8.59668,-4.66666 -0.90751,-4.66666 -6.211136,0 -8.421444,-0.57127 -10.317758,-2.66667 -1.848724,-2.04282 -1.975049,-2.67471 -0.539984,-2.70107 5.468693,-0.10042 27.664622,-2.63587 29.609932,-3.38236 1.24486,-0.4777 2.26338,-1.99291 2.26338,-3.36715 0,-2.79598 1.76688,-3.3381 14.55866,-4.46699 8.61855,-0.7606 10.57858,-1.38964 9.06043,-2.90779 -1.12135,-1.12134 -39.42364,3.29361 -42.40183,4.88748 -3.74771,2.00572 -13.217255,1.60054 -13.217255,-0.56553 0,-2.71792 4.267493,-5.99029 4.994606,-3.82992 0.308522,0.91666 1.676653,1.66666 3.040291,1.66666 3.429428,0 11.965098,-5.21955 11.965098,-7.31664 0,-0.94595 2.1,-2.11388 4.66667,-2.59539 6.65298,-1.2481 5.76728,-3.20457 -1.66667,-3.68158 -7.18612,-0.46111 -8.55958,-2.8584 -2,-3.49086 2.72185,-0.26244 4.33333,-1.14256 4.33333,-2.36667 0,-1.10171 1.75082,-2.29902 4.02775,-2.75441 7.76077,-1.55215 5.36819,-3.129 -4.94906,-3.26171 -9.41888,-0.12116 -9.91085,-0.25139 -5.15782,-1.36532 14.30512,-3.35255 2.48388,-3.01184 -23.254195,0.67024 -6.966666,0.99665 -12.868054,1.63951 -13.114195,1.42858 -2.559923,-2.19376 45.53357,-11.1379 75.11419,-13.9693 16.93374,-1.62086 54.61374,-7.52792 63.33333,-9.92871 4.03333,-1.11051 13.33333,-3.1912 20.66667,-4.62377 7.33333,-1.43256 17.23333,-3.52725 22,-4.65485 4.76666,-1.1276 11.18125,-2.05906 14.25464,-2.0699 5.49685,-0.0194 8.42608,1.65685 5.76711,3.30018 -4.95124,3.06004 3.13081,4.45917 11.97825,2.07363 2.56666,-0.69205 10.96666,-1.91198 18.66666,-2.71095 7.7,-0.79897 17.3,-2.0545 21.33333,-2.79006 4.03334,-0.73557 19.03334,-1.89745 33.33334,-2.58196 14.3,-0.68452 43.7,-2.11432 65.33333,-3.17735 53.2899,-2.61858 195.74917,-0.97568 238.59388,2.75156 18.68418,1.62542 4.9265,2.56437 -25.92722,1.76951 -16.86667,-0.43452 -31.56667,-0.32774 -32.66667,0.2373 -1.2734,0.65411 -0.0624,1.06999 3.33334,1.14473 2.93333,0.0646 7.73333,0.5631 10.66666,1.10786 9.52301,1.76857 -18.62916,2.87113 -50.89023,1.99309 -31.06248,-0.84543 -52.00114,0.1784 -48.11588,2.3527 1.19375,0.66806 20.65848,1.77564 43.25495,2.46128 22.59647,0.68565 47.6845,1.88383 55.75116,2.66262 8.06667,0.77879 29.66667,1.91298 48,2.52041 31.69969,1.0503 32.28396,1.11492 11.92151,1.31842 -15.67815,0.15669 -22.07654,0.70004 -23.89414,2.0291 -2.17209,1.58828 -0.66266,1.93427 12.0785,2.76865 27.51407,1.80182 36.01049,2.79942 33.56846,3.94142 -4.76122,2.22654 -0.47792,3.47617 12.07103,3.52166 7.10672,0.0258 16.82131,0.90468 21.58797,1.95316 4.76667,1.04848 11.44669,1.9274 14.8445,1.95316 4.84323,0.0367 6.31577,0.57438 6.81641,2.48883 0.41896,1.60209 2.88001,3.02687 7.15551,4.14256 3.58431,0.93532 7.57563,1.97962 8.86961,2.32067 4.22564,1.11376 0.96228,3.09478 -5.09805,3.09478 -5.7841,0 -7.95064,1.97163 -3.88212,3.53287 1.76265,0.67639 1.71745,1.02659 -0.33334,2.58242 -2.17616,1.65093 -2.06905,1.80341 1.29415,1.84231 3.95643,0.0457 5.19423,2.64772 1.33333,2.80278 -3.75461,0.1508 2.19956,2.36507 6.66667,2.47924 5.82566,0.14889 4.2489,2.76038 -1.66667,2.76038 -7.20487,0 -6.72913,2.15677 1,4.53345 l 6.33334,1.94748 -11,0.0929 c -11.01362,0.093 -14.53071,1.72006 -6.98169,3.22986 2.21007,0.44202 8.81007,1.20328 14.66667,1.6917 5.85659,0.48843 10.64835,1.40178 10.64835,2.02968 0,0.62789 -0.63772,1.14163 -1.41714,1.14163 -0.77943,0 -1.22943,1.35 -1,3 0.35227,2.53346 -0.28005,3.06671 -4.06603,3.42898 -3.12065,0.29861 -4.69171,1.22644 -5.16933,3.05286 -0.37739,1.44313 -2.85996,3.54167 -5.51683,4.66342 l -4.83067,2.03954 4.48641,1.9076 c 2.46753,1.04918 6.21753,1.9076 8.33334,1.9076 3.95147,0 5.07921,1.74769 2.25431,3.49357 -0.87593,0.54135 -6.57593,0.84694 -12.66666,0.67907 -7.03729,-0.19395 -11.07407,0.20499 -11.07407,1.09441 0,0.76979 1.46297,1.39962 3.25105,1.39962 1.78807,0 5.15781,1.74156 7.48831,3.87014 3.93073,3.59017 4.05726,3.96498 1.74895,5.18095 -1.36857,0.72094 -6.73457,1.72985 -11.92445,2.24202 -10.78339,1.06418 -14.43022,2.586 -11.23052,4.68647 1.1,0.7221 3.2,1.33129 4.66666,1.35375 1.46667,0.0225 3.52809,0.58592 4.58093,1.25213 2.69334,1.70427 -0.50366,5.41454 -4.6655,5.41454 -4.02905,0 -5.446,2.40764 -2.62914,4.46738 2.02641,1.48175 1.92734,1.93906 -1.13615,5.24462 -2.6138,2.82033 -4.62362,3.63833 -9.08647,3.69817 -3.15168,0.0423 -8.13033,0.5195 -11.06367,1.06052 -5.04009,0.9296 -5.17276,1.07223 -2.41297,2.59412 1.6062,0.88574 5.1621,2.07619 7.902,2.64546 5.18085,1.07642 7.28708,3.45078 4.13431,4.66061 -1.00248,0.38469 -4.56761,0.0713 -7.92251,-0.6964 -3.3549,-0.76771 -7.21004,-0.96514 -8.56699,-0.43874 -2.27248,0.88157 -2.21808,1.09132 0.68929,2.65799 4.65761,2.50981 0.73402,3.50225 -6.92084,1.75057 -6.17256,-1.41248 -9.21433,-0.70361 -6.8134,1.58783 0.68445,0.65323 4.78683,1.53562 9.11642,1.96086 4.32958,0.42524 8.17577,1.07697 8.5471,1.4483 1.52658,1.52658 -5.73569,5.95267 -10.88518,6.63411 -11.38508,1.50661 -39.75929,1.33398 -66.86722,-0.40684 -35.68247,-2.29145 -150.4237,-3.70003 -179.33333,-2.20153 -33.70236,1.74694 -36.54198,2.07855 -38.8301,4.53456 -1.84591,1.98134 -5.41793,2.52126 -21.35991,3.22859 -10.52883,0.46715 -24.54332,1.69403 -31.14332,2.72641 -6.6,1.03237 -21,2.62211 -32,3.53275 -14.04673,1.16286 -20.45485,2.21911 -21.52807,3.54847 -1.65534,2.05042 -26.61545,4.66883 -32.95447,3.45705 -1.9288,-0.36871 -5.54996,0.29911 -8.04702,1.48404 -2.49707,1.18494 -6.84944,2.15778 -9.67195,2.16187 -5.19661,0.008 -13.59113,1.8094 -18.46516,3.96352 -1.46666,0.64821 -7.76666,1.86069 -14,2.69441 -6.23333,0.83371 -12.55958,1.80906 -14.05833,2.16743 -1.62453,0.38844 -3.56984,-0.32122 -4.81698,-1.75728 z m 123.20864,-22.62523 c -0.91666,-0.36988 -2.41666,-0.36988 -3.33333,0 -0.91667,0.36989 -0.16667,0.67252 1.66667,0.67252 1.83333,0 2.58333,-0.30263 1.66666,-0.67252 z M 124.26489,216.86314 c 3.71343,-0.79639 7.60563,-2.30191 8.64933,-3.34561 1.04369,-1.04369 3.28496,-2.45407 4.98059,-3.13417 3.02191,-1.21205 3.01035,-1.23821 -0.58371,-1.32105 -2.01666,-0.0465 -3.67179,0.36548 -3.67806,0.91548 -0.006,0.55 -3.75627,2.09979 -8.33333,3.44398 -4.57707,1.34419 -9.52194,2.95358 -10.98861,3.57643 -2.56422,1.08894 -2.55393,1.13591 0.26771,1.22268 1.6139,0.0496 5.97264,-0.56135 9.68608,-1.35774 z m -15.84267,132.96889 c 0.30555,-0.26351 2.35555,-0.88173 4.55555,-1.37384 2.92122,-0.65343 3.46061,-0.52972 2,0.45868 -1.80049,1.21841 -7.89354,2.069 -6.55555,0.91516 z M 99.644441,218.31112 c 0.453229,-0.73333 1.424049,-1.33333 2.157379,-1.33333 0.73333,0 0.96251,0.6 0.50928,1.33333 -0.45322,0.73334 -1.42404,1.33334 -2.15737,1.33334 -0.733334,0 -0.962513,-0.6 -0.509289,-1.33334 z m 185.999989,-57.95 c 0,-1.51973 7.8383,-4.40499 14,-5.15338 3.66667,-0.44535 12.66667,-1.74458 20,-2.88719 7.33333,-1.14261 19.85572,-2.45798 27.82753,-2.92304 l 14.4942,-0.84556 -1.54111,2.87958 c -1.43865,2.68815 -2.57954,2.88707 -17.16086,2.9921 -8.59087,0.0619 -18.91976,0.63349 -22.95309,1.27023 -32.01167,5.0537 -34.66667,5.41114 -34.66667,4.66726 z m 93.33333,-12.71666 c 0,-0.73334 0.63541,-1.33334 1.41203,-1.33334 0.77661,0 1.0412,0.6 0.58797,1.33334 -0.45322,0.73333 -1.08863,1.33333 -1.41202,1.33333 -0.32339,0 -0.58798,-0.6 -0.58798,-1.33333 z m 6.00944,-1.31806 c -0.46712,-0.75582 0.0681,-0.97935 1.25465,-0.52402 2.30989,0.88639 2.73251,1.84208 0.8146,1.84208 -0.69005,0 -1.62121,-0.59313 -2.06925,-1.31806 z m 15.99056,0.0724 -5.33333,-0.8551 7.06563,-1.61628 c 8.46,-1.93524 115.38172,-2.13239 119.60103,-0.22052 1.86209,0.84375 -0.55166,1.20837 -8,1.20846 -14.33745,1.8e-4 -70.64311,1.10166 -91.33333,1.78671 -9.16666,0.3035 -19.06666,0.16703 -22,-0.30327 z m 128.33333,-2.30403 c 0.91667,-0.36988 2.41667,-0.36988 3.33334,0 0.91666,0.36988 0.16666,0.67251 -1.66667,0.67251 -1.83333,0 -2.58333,-0.30263 -1.66667,-0.67251 z"
       id="path1" />
  </g>
</svg>
